<svg width="48" height="48" viewBox="0 0 48 48" fill="none" xmlns="http://www.w3.org/2000/svg">
<path d="M25.8349 20.3474C22.297 16.7349 17.3558 19.8162 15.3903 21.8232C16.373 22.0741 19.3113 20.8599 22.3222 22.3972C25.8348 24.4467 17.7317 33.3658 21.9138 37.7695C23.4192 39.3067 29.8493 38.7942 31.3548 36.2321C30.372 36.734 26.0105 36.4116 24.8313 35.2074C23.3571 33.7022 30.2574 24.8633 25.8349 20.3474Z" fill="white"/>
<path d="M23.9046 15.8581C25.3741 15.8581 26.5654 14.6668 26.5654 13.1973C26.5654 11.7278 25.3741 10.5366 23.9046 10.5366C22.4352 10.5366 21.2439 11.7278 21.2439 13.1973C21.2439 14.6668 22.4352 15.8581 23.9046 15.8581Z" fill="white"/>
</svg>
